<?xml version="1.0" standalone="no"?>
<svg version="1.1" id="Layer_1" xmlns="http://www.w3.org/2000/svg" xmlns:xlink="http://www.w3.org/1999/xlink" x="0px" y="0px" viewBox="0 0 864 680.3" enable-background="new 0 0 864 680.3" xml:space="preserve" class="injected-svg" data-src="https://prod-illu.s3-us-west-2.amazonaws.com/svg/5ee20d5908208e4ea6906e2f_1.svg">
<title>winter vacations 1.2</title>
<g>
	<g id="Layer_2_1_">
		<path fill="#A6E4FF" d="M401.7,525c87.5,9.1,79.4-76.4,152.8-69.8c73.4,6.6,120.6-43.4,185.7-146.6    c48.5-76.9,91.9-98.6,123.7-104.4v-55.5c-86.2,3.5-112.9-64.2-199.1-76.1c-68.4-9.4-116.9,13.3-160.8,34.7    c-71.9,35.1-131.5,66.8-246.6-51.5l0,0c-22.3-22.9-43-41.2-62.1-56H0v566.8h245.3C318.9,486.8,360.3,520.7,401.7,525z"></path>
		<path fill="#A6E4FF" d="M842.6,592.9c0,15-153.8,27.1-343.6,27.1S93,608.8,93,593.8c0-15,216.3-28,406-28S842.6,578,842.6,592.9z"></path>
		<path fill="#A6E4FF" d="M594,662.9c0,6.9-73.8,12.5-164.8,12.5s-194.7-5.2-194.7-12.1s103.7-12.9,194.7-12.9S594,656,594,662.9z"></path>
		<path fill="#A6E4FF" d="M608.5,648.2c0,6.9-73.8,12.5-164.8,12.5S249,655.6,249,648.7c0-6.9,103.7-12.9,194.7-12.9    S608.5,641.3,608.5,648.2z"></path>
		<path fill="#A6E4FF" d="M600,631.3c0,6.9-73.8,12.5-164.8,12.5s-194.7-5.2-194.7-12.1s103.7-12.9,194.7-12.9S600,624.3,600,631.3z    "></path>
	</g>
	<g id="Layer_1_1_">
		<path fill="#FFFFFF" stroke="#000000" stroke-width="2.0736" stroke-miterlimit="10" d="M480.2,586.1c-7.4,4.3-11.1-1.2-14.5-1.6    c-1.7-0.2-3.4-0.1-5.1,0.2c0.7-2.6,2.4-5.5,4.7-8.5c3.5-4.7,6.8-9.5,9.7-14.6l21.1-3c-0.6,2.4-1.2,12.8-1.6,14.6    C493.6,576.7,487.6,581.8,480.2,586.1z"></path>
		<path stroke="#000000" stroke-width="2.0736" stroke-miterlimit="10" d="M489,583.4c-9.7,7.5-14.6,10.9-23.2,9.1    c-5-1.1-6.2-4.1-5.2-7.8c1.7-0.4,3.4-0.4,5.1-0.2c3.4,0.4,7.2,5.9,14.5,1.6c7.3-4.3,11.3-9.8,12.4-13.3c1.7-5.6-0.2-11.5,0.4-13.9    l5.6-2.1C498.6,556.8,502.9,572.5,489,583.4z"></path>
		<path stroke="#000000" stroke-width="2.0736" stroke-miterlimit="10" d="M486.8,564.2c0,0-4.8,9.1-9.8,13s-8.2,0.8-5.7-3.1    c2.4-4,6.6-11.8,6.6-11.8L486.8,564.2z"></path>
		<path fill="#FFFFFF" stroke="#000000" stroke-width="2.0736" stroke-miterlimit="10" d="M536.1,592.5c-6.2,5.8-11.1,1.3-14.5,1.6    c-1.7,0.2-3.4,0.6-4.9,1.3c0.1-2.7,1.1-5.9,2.7-9.3c2.4-5.3,4.5-10.8,6.2-16.4l19.9-7.5c-0.1,2.5,1.6,12.8,1.6,14.6    C547.1,580.4,542.3,586.6,536.1,592.5z"></path>
		<path stroke="#000000" stroke-width="2.0736" stroke-miterlimit="10" d="M544.1,587.9c-7.8,9.4-11.9,13.8-20.6,13.9    c-5.1,0-7-2.6-6.8-6.4c1.6-0.7,3.2-1.2,4.9-1.3c3.4-0.3,8.3,4.2,14.5-1.6c6.2-5.8,8.9-12.1,9.2-15.7c0.4-5.8-2.7-11.2-2.7-13.7    l5-3.2C547.6,559.8,555.3,574.3,544.1,587.9z"></path>
		<path stroke="#000000" stroke-width="2.0736" stroke-miterlimit="10" d="M537.8,569.6c0,0-2.8,9.9-6.7,14.8    c-4,4.9-7.8,2.6-6.3-1.8c1.5-4.4,3.9-12.9,3.9-12.9L537.8,569.6z"></path>
		<path fill="#FFFFFF" stroke="#000000" stroke-width="2.0736" stroke-miterlimit="10" d="M610.9,306.2c0,0,6-8.5,10.2-12.2    c4.1-3.7,15.7-5.1,16.1-12c0.5-6.9,5.1-11.5,7.8-4.1c2.8,7.4,3.1,16.9-2.1,23.4c-3.9,4.9-23.2,16.9-23.2,16.9L610.9,306.2z"></path>
		<path fill="#FFFFFF" stroke="#000000" stroke-width="2.0736" stroke-miterlimit="10" d="M408.4,395.6c0,0-6,4.9-15.6,12.7    s-12,15.2-9.7,18.4c2.3,3.2,7.8-1.1,15.2-5.8c5.4-3.4,10.9-6.4,16.6-9.2L408.4,395.6z"></path>
		<path fill="#FFFFFF" stroke="#C7F9F8" stroke-width="2.0736" stroke-miterlimit="10" d="M640.1,280.5c0.4,3.9-1.3,6.9-2.5,8.9    s-4.1,7-8.6,7.6c-6.2,0.9-13.8-6.1-13.9-13.9c0.1-4.8,2.5-9.2,6.6-11.8c2.1-1.5,4.7-2.2,7.3-2.1    C634.7,269.7,639.5,275,640.1,280.5z"></path>
		<path fill="#02A4C9" d="M504.9,459.2c-7.7,7.8-14.7,19-19,24.3c-4,4.9-7.8,10-11.3,15.3c0,0,14.8,43.7,19,56.2    c0.8,2.4,1.6,4.6,2.5,6.7c4.6-2.6,6.4-4.8,6.4-4.8l-21-57.6l32.3-34.6l3.7-12.4C517.4,452.2,511,453,504.9,459.2z"></path>
		<path fill="#FFFFFF" stroke="#000000" stroke-width="2.0736" stroke-miterlimit="10" d="M528.7,507.6c0,0,20-44.6,22.3-57.6    c1.6-9.2-2.2-21.7-4.6-28.1l-59.4,9.4c0,0-18.7,33.2-27.9,45.2c-9.2,12-9.2,23.1-5.5,33.2c3.7,10.1,17,55.3,17,55.3s7.7,3.7,18,0    c2.6-0.9,5.1-2.1,7.5-3.5c-0.8-2.1-1.6-4.3-2.5-6.7c-4.3-12.4-19-56.2-19-56.2c3.5-5.3,7.2-10.4,11.3-15.2    c4.3-5.3,11.3-16.5,19-24.3c6.2-6.2,12.6-7.1,12.6-7.1l-3.7,12.4c0,0-4.1,26.3-6.1,35.3c-3.2,14.6,4.6,46,6.1,51.5    c1.5,5.5,6.7,20.2,6.7,20.2s5.1,2.3,15.9,0c5.2-1,9.9-3.9,13.1-8.1c-1.3-4-3.2-9.7-5.3-15.7C540.2,536.5,528.7,507.6,528.7,507.6z    "></path>
		<path fill="#02A4C9" d="M536.4,506.1c0,0,16.7-40.6,20.4-53.5c3.7-12.9,0-32.3,0-32.3l-10.4,1.7c2.3,6.4,6.2,18.9,4.6,28.1    c-2.2,13-22.3,57.6-22.3,57.6s11.6,28.9,15.6,40.1c2.1,6,4,11.6,5.3,15.7c1.9-2.4,4.1-6.3,4.1-6.3L536.4,506.1z"></path>
		<path stroke="#000000" stroke-width="2.0736" stroke-miterlimit="10" d="M533.3,341.1c0,0,21.4,1,38,0s19.7-5.9,28-11.1    c5.9-3.7,15.8-13.7,21-19.3l-0.6-0.5l-7.7-7.3c0,0-14.5,12.1-28.7,17.1s-39.8,1.3-54.3,4c-5.6,1.1-25.8,9.3-25.8,9.3    s-16.6,1.1-22.5,4.6c-6,3.5-34.8,36.6-75.1,57.6c-2.6,6.5,6.4,18.1,6.4,18.1s28.7-12.4,37.3-18.1c9.5-6.3,34.2-29.9,34.2-29.9    s5,41.2,3.5,65.7c9.5,11.7,40.4,17.6,63.6,5.2c-1.4-13-5.5-50.9-7.1-63.4C541.7,358.3,533.3,341.1,533.3,341.1z"></path>
		<path fill="#02A4C9" d="M552.2,378.5c-3.1-18.3-8.5-29.9-8.5-29.9s36.4,3.3,50.7-7.5c8.2-6.2,30.9-25.6,30.9-25.6l-4.9-4.6    c-5.2,5.5-15.1,15.6-21,19.3c-8.3,5.2-11.4,10-28,11.1c-16.6,1-38,0-38,0s8.4,17.2,10.2,32.1c1.6,12.5,5.7,50.4,7.1,63.4    c2.7-1.4,5.2-3,7.6-4.9C558.6,416.5,557.6,410.4,552.2,378.5z"></path>
		<path fill="#02A4C9" stroke="#000000" stroke-width="2.0736" stroke-miterlimit="10" d="M506.2,330.1l-5.9,70.6    c0,0,6.7,6.6,15.7,3.8c6.4-2,11.2-7.6,11.2-7.6l-7.4-66.8H506.2z"></path>
		<path fill="#02A4C9" stroke="#000000" stroke-width="2.0736" stroke-miterlimit="10" d="M498,338.2l-9.5,35c0,0-0.8,6.1,7.5,7.9    c8.3,1.8,12.8,0,12.8,0V341L498,338.2z"></path>
		<path fill="#02A4C9" stroke="#000000" stroke-width="2.0736" stroke-miterlimit="10" d="M514.1,315.4l14.9,8.6    c0,0-2.8,14.4-15.3,19c-12.5,4.6-25.3-2-25.3-2v-15.2L514.1,315.4z"></path>
		<path fill="#FFFFFF" stroke="#000000" stroke-width="2.0736" stroke-miterlimit="10" d="M468.1,297.2c-1.4,6.8,2,13.2,7.5,14.3    s11.2-3.4,12.6-10.2c1.4-6.8-2-13.2-7.5-14.3S469.5,290.4,468.1,297.2z"></path>
		<path fill="#FFFFFF" stroke="#000000" stroke-width="2.0736" stroke-miterlimit="10" d="M475.8,296.3    c-2.1,15.6,6.1,29.7,18.3,31.3c12.3,1.7,23.9-9.6,26.1-25.3c2.1-15.6-6.1-29.7-18.3-31.3C489.6,269.4,477.9,280.7,475.8,296.3z"></path>
		<path stroke="#000000" stroke-width="2.0736" stroke-miterlimit="10" d="M501,284.5c2.3,8,3.5,12.2,7.2,17.4    c3.4,4.6,10.2,13.4,20.9,12.9c20.6-1,23-14.4,23-14.4s-10.7-0.6-13.2-6.6c-10.2-24.4-17.1-29.9-30.2-31.7    c-13.1-1.8-23.5,6.2-29.4,14.8c-6,8.6-3.6,19.6-3.6,19.6S490.1,286.6,501,284.5z"></path>
		<path fill="#FFFFFF" stroke="#000000" stroke-width="2.0736" stroke-miterlimit="10" d="M511.9,306.5c0,0,7.9-5.2,9,0.7    c1.1,5.9-1.8,7.9-6.7,8.2C509.1,315.7,511.9,306.5,511.9,306.5z"></path>
		<path fill="#FFFFFF" stroke="#000000" stroke-width="2.0736" stroke-miterlimit="10" d="M523.5,296.1c0.5-6.4,0.2-15.9-4.6-23.1    c-3.5-5-8.5-8.1-15.2-9.1c-9.7-1.5-17.5,0.4-23.2,5.5c-10.6,9.5-9.9,26.7-9.9,27.5l4.7-0.2c0-0.2-0.6-15.7,8.3-23.7    c4.6-4.1,11.1-5.6,19.3-4.4c5.4,0.8,9.3,3.1,12,7.1c3.8,5.6,4.3,13.4,3.9,19c-4.9,0-9.5,4.3-10.8,10.3c-1.4,6.8,2,13.2,7.5,14.3    c5.5,1.1,11.2-3.4,12.6-10.2C529.2,303.7,527.2,298.5,523.5,296.1z"></path>
		<path fill="#FFFFFF" stroke="#D9F9F8" stroke-width="2.0736" stroke-miterlimit="10" d="M430,272.3c0,7.7-6.2,13.9-13.9,13.9    c-7.7,0-13.9-6.2-13.9-13.9c0-7.7,6.2-13.9,13.9-13.9c0,0,0,0,0,0C423.8,258.5,430,264.7,430,272.3z"></path>
		<path fill="#02A4C9" stroke="#000000" stroke-width="2.0736" stroke-miterlimit="10" d="M177.3,301.7c0,0-9.1-0.7-23.8,1    c-14.7,1.7-31.7-9.7-31.7-9.7s-5.5,8-5.9,13.5c-0.2,2.9-0.2,5.9,0,8.8c0,0,13.8,10.4,32.5,6.4s33.6-6.4,33.6-6.4L177.3,301.7z"></path>
		<path fill="#02A4C9" stroke="#000000" stroke-width="2.0736" stroke-miterlimit="10" d="M104.4,329.1c0,0,10.4-12.6,21.1-16.6    c16.2-6.1,38-2.9,38-2.9l26,8c0,0-41.4,4.3-49.8,7.3c-10.2,3.7-20.7,15.5-20.7,15.5L104.4,329.1z"></path>
		<path fill="#FFFFFF" stroke="#000000" stroke-width="2.0736" stroke-miterlimit="10" d="M153.7,584.8c4.5,7.3,10.5,4.1,13.7,5.4    c1.6,0.6,3.1,1.5,4.5,2.6c0.6-2.6,0.5-6-0.2-9.7c-1-5.8-1.6-11.7-1.8-17.5L152.5,553c-0.6,2.4-4.9,12-5.4,13.7    C146.2,570.2,149.1,577.6,153.7,584.8z"></path>
		<path stroke="#000000" stroke-width="2.0736" stroke-miterlimit="10" d="M147.1,578.3c5.1,11.2,7.9,16.6,16.4,18.9    c5,1.4,7.4-0.7,8.3-4.4c-1.3-1.1-2.8-2-4.5-2.6c-3.2-1.2-9.2,1.9-13.7-5.4c-4.5-7.3-5.5-14.1-4.8-17.7c1.2-5.8,5.6-10.1,6.2-12.6    l-4-4.5C151,550.1,139.8,562.1,147.1,578.3z"></path>
		<path stroke="#000000" stroke-width="2.0736" stroke-miterlimit="10" d="M158.1,562.2c0,0,0.1,10.4,2.6,16.1s6.9,4.6,6.6-0.1    s-0.4-13.6-0.4-13.6L158.1,562.2z"></path>
		<path fill="#FFFFFF" stroke="#000000" stroke-width="2.0736" stroke-miterlimit="10" d="M323,587.5c8.3,2.1,10.4-4.3,13.6-5.7    c1.6-0.7,3.3-1.1,5-1.2c-1.4-2.3-3.8-4.6-6.9-6.8c-4.7-3.5-9.2-7.3-13.5-11.4l-21.2,3c1.3,2.1,4.8,12,5.7,13.6    C307.5,582.3,314.7,585.4,323,587.5z"></path>
		<path stroke="#000000" stroke-width="2.0736" stroke-miterlimit="10" d="M313.8,587.4c11.4,4.5,17.2,6.4,24.9,2.2    c4.5-2.5,4.8-5.7,2.9-9c-1.7,0.1-3.4,0.6-5,1.3c-3.1,1.4-5.2,7.8-13.6,5.7c-8.3-2.1-13.7-6.3-15.7-9.4c-3.2-4.9-3-11.2-4.3-13.3    l-6-0.4C297,564.4,297.3,580.8,313.8,587.4z"></path>
		<path stroke="#000000" stroke-width="2.0736" stroke-miterlimit="10" d="M310.5,568.2c0,0,7.2,7.4,13.1,9.7s8.1-1.5,4.7-4.7    s-9.7-9.5-9.7-9.5L310.5,568.2z"></path>
		<path fill="#FFFFFF" stroke="#000000" stroke-width="2.0736" stroke-miterlimit="10" d="M125.2,424.4c0,0-4.2,29.9,10.9,33.3    s15.2-11.9,14.7-16.3c-0.4-3.8,1.1-3.8,2.9-2.1c4.8,4.6,6.4,2.8,6.7,1.9c0.8-2.5-1.4-6.9-12.6-16.9    C133.9,411.9,125.2,424.4,125.2,424.4z"></path>
		<path fill="#FFFFFF" stroke="#000000" stroke-width="2.0736" stroke-miterlimit="10" d="M315.6,275.9c0,0,13.8-5.7,27.6-7.8    c13.8-2.1,23.5,9.5,15.9,14.8c-7.6,5.3-37.3,8.3-37.3,8.3L315.6,275.9z"></path>
		<path stroke="#000000" stroke-width="2.0736" stroke-miterlimit="10" d="M169.8,426.5c0,0,0.7,26,5.5,43.3    c3.8,13.5,14.7,38,14.7,38l-37.2,37.5c0,0-4.9,7.7,4.7,21c7.3,10.1,19.5,7.3,19.5,7.3s35.3-37.3,39.3-52.6c3.6-13.6,0-66.1,0-66.1    s34.6,39.9,45.4,57.2c6.8,10.9,30.2,60.3,30.2,60.3s9.2,4.7,23-2.4c10.6-5.4,8.5-13.1,8.5-13.1s-36.6-66.3-45.6-80    c-9-13.8-33.9-61.8-33.9-61.8L169.8,426.5z"></path>
		<path fill="#FFFFFF" stroke="#000000" stroke-width="2.0736" stroke-miterlimit="10" d="M324.5,287.7c-0.5-5.4-1.6-12.6-4-17.1    c-20.9,3-43.3,6.9-72.4,13.4c-29,6.5-49.6,21.5-49.6,21.5l12.9,19.8c9.6-8.1,28.2-22.5,43.7-26.5    C271.8,294.5,310.3,289.5,324.5,287.7z"></path>
		<path fill="#02A4C9" d="M250.9,308.3c13.8-6.6,74-13,74-13s0-3.3-0.4-7.6c-14.2,1.8-52.7,6.8-69.5,11.1    c-15.5,4-34.1,18.3-43.7,26.5l3.6,5.5C214.9,330.8,237.1,314.9,250.9,308.3z"></path>
		<path fill="#FFFFFF" stroke="#000000" stroke-width="2.0736" stroke-miterlimit="10" d="M219.6,318.7l-9.4-14.6l-35.7-1.7    c-4.7,3.3-18.8,9.2-25,15.4c-6.2,6.2-24.8,32.7-30,52.2c-4.3,16.4,2.8,60.3,2.8,60.3s12.9,0.4,21.8-4c-1.6-9.2-5.9-33.9-5.9-44.9    c0-13.6,13.7-31.6,17.6-38.7c3.4-6.1,7.3-12.1,11.4-17.7c0,0,5.1,49.6,8.1,76.2c1.2,10.4,2.8,22.5,4.4,33.5    c11.5,0.2,28.2,0,37.4-2.1c15.1-3.5,33.8-14.7,33.8-14.7L219.6,318.7z"></path>
		<path fill="#02A4C9" d="M167.2,324.8c-4.1,5.7-8,11.6-11.4,17.7c-4,7.1-17.6,25.1-17.6,38.7c0,11,4.2,35.8,5.9,44.9    c2.2-1,4.1-2.5,5.7-4.3c-3.5-12-7.8-36.8-6-44c1.8-7.2,20-37.6,20-37.6s0.7,39,1.4,53.8c0.7,14.8,2.1,40.1,2.1,40.1    s5.2,0.2,12.5,0.4c-1.6-11-3.2-23.2-4.4-33.5C172.3,374.5,167.2,324.8,167.2,324.8z"></path>
		<polygon stroke="#000000" stroke-width="2.0736" stroke-miterlimit="10" points="190,311.9 202.5,368.5 210.2,366.8 195,311.9       "></polygon>
		<path fill="#02A4C9" stroke="#000000" stroke-width="2.0736" stroke-miterlimit="10" d="M179.8,292.3c0,0-5.8,3.1-7.5,5.6    c-1.7,2.5-2.5,7.7-2.5,7.7s5.8,15,20.3,12.9s20.1-9,20.1-14.5C210.2,298.5,179.8,292.3,179.8,292.3z"></path>
		<path fill="#FFFFFF" stroke="#000000" stroke-width="2.0736" stroke-miterlimit="10" d="M221.9,273.9c3,16.5-5,31.7-17.9,34.1    c-12.9,2.4-25.8-9-28.9-25.5c-3-16.5,5-31.7,17.9-34.1S218.9,257.4,221.9,273.9z"></path>
		<path fill="#FFFFFF" stroke="#000000" stroke-width="2.0736" stroke-miterlimit="10" d="M174.1,249c0.8,7.4-1.1,17.7,3.5,18.8    c4.6,1.1,13-8.5,23.2-8.7c7.5-0.2,14.4,1.6,19.4,5.6c-1-5-3.2-12.2-7.5-15.6c-13.5-10.6-18.7-12-30-14.4c-9.6-2-12,1.2-12.8,6.8    C172.3,243.3,173.8,246,174.1,249z"></path>
		<path fill="#02A4C9" stroke="#000000" stroke-width="2.0736" stroke-miterlimit="10" d="M173.9,284c0,0,15.4-17.8,30.2-18.6    c14.8-0.8,16.9,4.6,16.9,4.6c-0.2-1.8-0.5-3.6-0.8-5.4c-4.9-4-11.9-5.8-19.4-5.6c-10.2,0.2-18.5,9.8-23.2,8.7    c-4.6-1.1-2.7-11.5-3.5-18.8c-0.3-3-1.9-5.7-4.3-7.5c-0.2,1.1-0.3,2.1-0.3,3.3C168.9,254.9,162.6,274.4,173.9,284z"></path>
		<path fill="#FFFFFF" stroke="#000000" stroke-width="2.0736" stroke-miterlimit="10" d="M176.2,282.3c0,0-4.7-3.9-5.5,2.4    c-0.9,6.3,2.3,8.3,7.5,8.4S176.2,282.3,176.2,282.3z"></path>
		<path fill="#FFFFFF" stroke="#BCD8D7" stroke-width="2.0736" stroke-miterlimit="10" d="M338.8,401.1c-1.8,8.3-2.7,12.4-5.5,14.1    c-6.3,3.7-22.3-3.7-22.2-14.1c0.1-6.8,7.1-12.7,13.9-13.9c4.9-0.9,12,0.3,14.3,4.8C340.2,394.1,339.8,396.4,338.8,401.1z"></path>
		<path fill="#D4F5EF" d="M569.7,624.6c-0.6,3.8,7.6,10.9,33.6,10.3c15.6-0.3,31-2.9,45.9-7.5c0,0,6.9,5.2,39.4,2.3    s53.5-13.1,55.3-13.9c1.8-0.9,23.5,1.7,28.9-1.2s4-11.6-4.7-13.6c-8.7-2-78.5,10.2-82.4,12.5c-4,2.3-15.5,3.5-31.1,0.9    C639,611.7,570.7,618,569.7,624.6z"></path>
		<path fill="#D4F5EF" d="M164.7,590.2c-0.9,3.8,6.8,11.4,32.9,12.6c15.6,0.7,31.2-0.8,46.3-4.4c0,0,6.5,5.7,39.2,5    c32.7-0.7,54.3-9.4,56.1-10.2c1.9-0.7,23.3,3.3,28.9,0.8s4.8-11.3-3.8-13.9c-8.5-2.6-79,4.8-83.1,6.9s-15.7,2.4-31.1-1.2    C234.8,582,166.2,583.7,164.7,590.2z"></path>
		<path fill="#FFFFFF" stroke="#000000" stroke-width="2.0736" stroke-miterlimit="10" d="M755.1,580c-0.2,0.5-0.4,0.9-0.7,1.4    c-0.7,1.3-1.6,2.5-2.5,3.5c-0.5,0.5-1,1-1.5,1.5c-1.9,1.9-4.1,3.7-4.6,4c-0.7,0.3-8.3-4.1-8.3-4.1s-25.7-13.9-38.7-22.8    s-22.8-22.2-25.3-30.2c-2.5-8.2-4.4-16.5-5.8-25c12.7-8.5,29.8-20.7,36.4-27.2c-0.1,1.7-0.4,5.2-0.8,9.1c-0.3,2.9-0.7,6.2-1.3,9.1    c-1.6,8.7-3.1,23.8-3.1,23.8c13.7,3.5,32.4,18.4,38,26.1l0.6,0.8l0,0.1C743.3,558.6,755.1,580,755.1,580z"></path>
		<path stroke="#000000" stroke-width="2.0736" stroke-miterlimit="10" d="M755.1,580c-0.8,1.8-1.9,3.5-3.3,4.9    c-0.5,0.5-1,1-1.5,1.5c-5.7-4.3-14.5-11.4-19.1-17.5c-7.2-9.6,0.4-14.5,4.3-20.9l1.8,2.1l0,0.1C743.3,558.6,755.1,580,755.1,580z"></path>
		<path fill="#02A4C9" d="M754.4,581.4c-0.7,1.3-1.6,2.5-2.5,3.5c-0.5,0.5-1,1-1.5,1.5c-1.9,1.9-4.1,3.7-4.6,4    c-0.7,0.3-8.3-4.1-8.3-4.1s-25.7-13.9-38.7-22.8s-22.8-22.2-25.3-30.2c-2.5-8.2-4.4-16.5-5.8-25c12.7-8.5,29.8-20.7,36.4-27.2    c-0.1,1.7-0.4,5.2-0.8,9.1c-3.1,3.7-6.5,7.2-10,10.4c-3.7,3.5-7.7,6.6-11.9,9.3c0,0,3.3,22.6,8.3,29.3c5,6.7,34,19.4,50.6,30.5    C745.4,573.2,750.2,577.1,754.4,581.4z"></path>
		<path fill="#FFFFFF" stroke="#000000" stroke-width="2.0736" stroke-miterlimit="10" d="M705.8,479.5c-0.5,0.6-1.1,1.2-1.7,1.8    c-6.6,6.5-23.8,18.7-36.4,27.2c-1.5,1-2.8,1.9-4.1,2.8c-13.9,9.1-25.5,16.2-25.5,16.2l2.5,6.2c2.7,8.6,2.3,25.7,0.2,38.3    c-2,11.5-11.7,25.4-13.4,27.8c-1.5-0.2-3-0.5-4.4-0.9c-1.1-0.3-2.1-0.6-3.2-1c-0.2-0.1-0.4-0.1-0.6-0.2l-0.4-0.1    c-4.5-1.7-8.9-3.8-11.9-5.2c-1.4-6.8-4.8-28.2-4.2-38.4c0.7-11.8,0.9-27.6,0-30.6c-0.9-3,1.1-10.6,8.3-20    c5.9-7.7,30.3-35.3,39.3-46.2c2-2.4,3.2-4,3.3-4.4c3.2-0.2,17.7-0.9,28.4,0.8c0.1,0,0.3,0,0.4,0.1l3.7,0.6    c7.4,1.2,14.8,2.5,19.3,3.9c1,0.3,1.8,0.6,2.5,0.9c0.7,0.2,1.3,0.6,1.8,1.1c0,0,0.1-0.1,0.3-0.3l0.4,0.2    C711.4,465.1,711,473.1,705.8,479.5z"></path>
		<path fill="#02A4C9" d="M705.8,479.5c-0.5,0.6-1.1,1.2-1.7,1.8c-6.6,6.5-23.8,18.7-36.4,27.2c-1.5,1-2.8,1.9-4.1,2.8    c-13.9,9.1-25.5,16.2-25.5,16.2l2.5,6.2c2.7,8.6,2.3,25.7,0.2,38.3c-2,11.5-11.7,25.4-13.4,27.8c-1.5-0.2-3-0.5-4.4-0.9    c-1.1-0.3-2.1-0.6-3.2-1c-0.2-0.1-0.4-0.1-0.6-0.2c3.3-8.3,9.4-24.1,11-33.4c2.2-12.8-4-36.6-4-36.6l4.3-8.1    c0,0,20.3-12.8,36.2-25s27.5-30.2,27.5-30.2s-7.9-6.7-15.2-8.7c-7.3-2-12.3-1.5-12.3-1.5s1.5,1.2,0.4,2.3s-4.8-1.1-5-1.2    c0.2,0.2,2.5,2.1,1.4,2.9c-1,0.8-6.5-1.2-6.5-1.2s2.2,0.9,0.4,2.3c-1.4,1.1-5-1.1-7-2.4c2-2.4,3.2-4,3.3-4.4    c3.2-0.2,17.7-0.9,28.4,0.8c0.1,0,0.3,0,0.4,0.1l3.7,0.6c7.4,1.2,14.8,2.5,19.3,3.9c1,0.3,1.8,0.6,2.5,0.9    c0.7,0.2,1.3,0.6,1.8,1.1c0,0,0.1-0.1,0.3-0.3l0.4,0.2C711.4,465.1,711,473.1,705.8,479.5z"></path>
		<path fill="#FFFFFF" stroke="#000000" stroke-width="2.0736" stroke-miterlimit="10" d="M623,357.2c-1.7,2.3-3.3,4.7-4.7,7.3    c-1.7,3.1-3.2,6.3-4.5,9.6c-5.3-0.7-11.8-5.5-13.2-10.4c-0.8-2.6-0.2-5.3,2.7-7.4c5.2-3.8,11.1-2.9,15-1.4    C620,355.4,621.6,356.2,623,357.2z"></path>
		<path stroke="#000000" stroke-width="2.0736" stroke-miterlimit="10" d="M751.8,396L751.8,396c0,0.2,0,0.4-0.1,0.6l0,0    c-2.3,12.8-13.7,21.8-19,23.5c-6.2,2.1-9.6,0.3-9.9,0.2c0,0.1,0.1,0.6,0.3,1.7c0.7,6,0.3,12.2-1.2,18c-2.6,10.3-10.4,18.3-12,19.9    c-0.4-0.2-1.1-0.4-2.1-0.8c-0.8-0.3-1.7-0.6-2.5-0.9c-1.7-0.5-3.9-1-6.3-1.5c-4.9-1-10.9-2-16.7-3c-1.4-0.2-2.8-0.4-4.3-0.6    c-6.9-0.6-13.9-0.8-20.9-0.5c-1.6,0.1-2.9,0.1-3.6,0.2l-0.7,0c0.3-3.3,0.4-6.7,0.2-10.1c-0.1-1.7-0.2-3.6-0.2-5.4    c0-3.4,0-6.4,0-6.4l-3.3,1.4l-0.2,0.1c-0.3,0.1-0.6,0.2-0.9,0.4c-0.3,0.1-0.6,0.2-1,0.3c-3.1,1.1-6.6,2-7.2,2.2    c-0.7,0.3-9-4.5-9-4.5c-5.5-4.1-10-9.3-13.2-15.4c-5.1-9.9-9.2-27.8-3.1-46c6-17.8,22.2-22.3,25.8-23.7c1.7,1.9,3.7,3.6,6,4.8    c0.9,0.5,1.8,0.9,2.7,1.3c2.6,1,5.3,1.5,8.1,1.5c0.7,0,1.3,0,2-0.1c1.1-0.1,2.1-0.4,3.1-0.9c1.8-1.3,3.6-6.5,3.6-6.5    c-0.2-0.1-0.3-0.3-0.5-0.4c2,1.1,4.3,1.6,6.6,1.5c2.5-0.1,4.9-1,6.9-2.4c1.3-0.9,2.5-1.9,3.7-3.1c4.7-4.7,8-11.1,7.5-16.4    c3.4-0.6,3.3-1.7,3.3-1.7c0.9-0.9,1.2-2.5,1.2-4.2l0.3-0.1c0.7,0.1,1.3,0.3,2,0.5c3,0.9,8.1,3.1,10.7,5.2c0.8,0.7,1.7,1.4,2.4,2.2    c2.5,2.4,4.5,5.3,4.8,7.9c0.2,1.9-0.1,3.9-0.9,5.7c0.3,0.2,0.7,0.5,1,0.8c8.2,6.3,32.6,28.3,36.2,45.5    C752.2,389.7,752.3,392.9,751.8,396z"></path>
		<path fill="#545656" stroke="#000000" stroke-width="2.0736" stroke-miterlimit="10" d="M674.3,433.5c-0.4,0.6,4.1,3.1,4.1,3.1    l23.6-17.8l-5.5-3.9C696.5,414.9,676.4,430.2,674.3,433.5z"></path>
		<path fill="#02A4C9" d="M678,453.1c-6.9-0.6-13.9-0.8-20.9-0.5c0.4-1.1,1.5-4.6,1.7-5.2c0.1-0.4-3.2-5.6-6-10    c-1.3-2.1-2.5-3.9-3.2-5l-0.7-1.1l-3.1-4.6c-4.3-7.6-8.1-15.4-11.6-23.3c-4.7-11.3,2.2-28.3,5.1-36.3c0,0,0.5,10.9,2,21.6    s6.7,18.4,8.3,22.8c1.6,4.4,4.9,13.8,8.5,17.3c3.6,3.5,13.7,11.1,16.1,14.6c2.4,3.6-2.4,4.2-1.3,4.6    C673.8,448.4,676.8,451.7,678,453.1z"></path>
		<path fill="#02A4C9" d="M751.8,396.1c0,0.2,0,0.4-0.1,0.6l0,0c-2.3,12.8-13.7,21.8-19,23.5c-6.2,2.1-9.6,0.3-9.9,0.2    c0,0.1,0.1,0.6,0.3,1.7c0.7,6,0.3,12.2-1.2,18c-2.6,10.3-10.4,18.3-12,19.9c-0.4-0.2-1.1-0.4-2.1-0.8c-0.8-0.3-1.7-0.6-2.5-0.9    c-1.7-0.5-3.9-1-6.3-1.5c1.8-2.9,3.8-5.8,5.9-8.5c5.2-6.7,5.1-17.7,0.2-20.3c-4.9-2.6-13.2-9.3-20.6-18.6s-7.8-16.2-7.8-16.2    s-5.4,2.3-7.8,2.1c-2.4-0.2-4.3-4.3-7-7.5c-3.3-3.8-0.7-11.2-0.7-11.2s-5.6,0.4-5.6-1.2s17.7-16.3,18.9-17.2    c1.3-0.9,13.6-0.1,15.2,2.5c1.6,2.6,2.7,11.6,2.7,11.6s9.6,3.6,9.9,4.6c0.3,1.2,0.5,2.5,0.5,3.8c-2,0.6-8.7,3.8-8.7,3.8l-5.1,5.5    c0,0,23.5,19,31.5,23.1c8,4.1,14.6,3.6,21.5-1.2C745.7,409.2,749.3,402.2,751.8,396.1z"></path>
		<path fill="#FFFFFF" stroke="#000000" stroke-width="2.0736" stroke-miterlimit="10" d="M709.6,460.2l0.3-0.3    c-0.4-0.2-1.1-0.4-2.1-0.8C708.5,459.4,709.1,459.8,709.6,460.2z"></path>
		<path fill="#FFFFFF" stroke="#000000" stroke-width="2.0736" stroke-miterlimit="10" d="M646.9,350.7c6.7,3.8,14.1,3,15.9,1.7    s3.6-6.5,3.6-6.5s-0.2-0.1-0.5-0.4c-1.7-0.9-3.1-2.2-4.2-3.8c-1-1.5-1.7-3.2-2.3-4.9l-18.3,9l-0.2,0.1    C642.6,347.8,644.6,349.4,646.9,350.7z"></path>
		<path fill="#FFFFFF" stroke="#000000" stroke-width="2.0736" stroke-miterlimit="10" d="M666.4,345.9c0,0-0.2,0.6-0.6,1.4    c-0.7,1.6-1.9,4.2-3.1,5.1c-1.8,1.3-9.2,2.1-15.9-1.7c-2.3-1.3-4.3-2.9-6-4.8c-0.7-0.8-1.4-1.7-1.9-2.7c-0.2-0.4-0.4-0.7-0.6-1.1    c-0.1-0.1-0.1-0.2-0.2-0.3c0.1,0.2,0.2,0.3,0.2,0.3l-0.2-0.3c-0.5-1.1-1.8-5.4-1.8-5.4l0,0c0,1.8-0.1-3.6-0.1-5.4    c0-4,0.7-3.9,0.1-5.6c-1.3-3.5-1.9-7.1-2-10.8c0-0.8,0-1.5,0-2.4c0,0,4.2,3,12.2,6.2c3.4,1.4,6.9,2.6,10.5,3.5    c-0.2,2.4-0.1,4.8,0.3,7.2c0.1,0.8,0.3,1.6,0.4,2.4c0,0.1,0,0.2,0.1,0.3c0.1,0.3,0.1,0.5,0.2,0.8c0.3,1.4,0.7,2.8,1.2,4.2    c0.5,1.8,1.3,3.4,2.3,4.9C662.9,343.4,664.5,344.9,666.4,345.9z"></path>
		<path fill="#FFFFFF" stroke="#000000" stroke-width="2.0736" stroke-miterlimit="10" d="M657.9,331.7c0-0.1,0-0.2-0.1-0.3    C657.9,331.5,657.9,331.6,657.9,331.7z"></path>
		<path fill="#FFFFFF" stroke="#000000" stroke-width="2.0736" stroke-miterlimit="10" d="M657.2,321.8L657.2,321.8    c-0.3,2.4-0.2,4.8,0.2,7.2C657.1,326.6,657,324.2,657.2,321.8z"></path>
		<path fill="#FFFFFF" stroke="#000000" stroke-width="2.0736" stroke-miterlimit="10" d="M695.1,319.2c0,1.7-0.2,3.3-1.2,4.2    c0,0,0.1,1.1-3.3,1.7c-2.1,0.3-4.3,0.4-6.4,0.4c-0.6,0-1.2,0-1.9,0c-3-0.1-6.7-0.4-11.5-1c-4.7-0.6-9.3-1.5-13.8-2.7    c-3.6-0.9-7.1-2.1-10.5-3.5c-8-3.2-12.2-6.2-12.2-6.2c-0.7-4.6-0.4-9.3,0.9-13.8c0.7-2.4,1.8-4.6,3.4-6.6c1.2-1.6,2.5-3.1,3.8-4.5    c4.7-5,10.4-8.1,23.4-10.8c11.5-2.4,18.5-2.5,22.1-1.4c1.6,0.5,2.5,1.2,2.8,2.1c0,0,1.1,9,8,8.3c0,0,0.2,10.7-6.5,14.9    c0,0,0.2,0.6,0.6,1.6c1,2.8,2.6,8.3,1.2,10.4c0,0.1-0.1,0.1-0.1,0.2C694.5,314.7,694.9,316.9,695.1,319.2z"></path>
		<path stroke="#000000" stroke-width="2.0736" stroke-miterlimit="10" d="M686,454.3c-3.7,4.1-8.7,9.8-10.1,11.4    c-2.2,2.6-11.9,16-23.1,29.9c-11.2,13.9-24.6,30.8-24.6,30.8s0.7,8.1,1.1,19.7s-2.2,31-4.7,43.5c-0.8,4-1.4,7-1.7,9.3    c-1.1-0.3-2.1-0.6-3.2-1c1.7-11.2,5.2-35.6,6-48.1c1.1-16.5-0.7-23.8-0.7-23.8s12.3-16.3,22.8-31c9.4-13.3,27.7-32.8,34.2-41.4    c0.1,0,0.3,0,0.4,0.1L686,454.3z"></path>
		<path fill="#FFFFFF" stroke="#000000" stroke-width="2.0736" stroke-miterlimit="10" d="M712.4,279.1c-0.1,0.6-0.3,1.2-0.5,1.7    c-1.8,3.5-10.3,4.9-15.4,4.3s-4.8-3.4-6-7.5c-0.2-0.6-0.2-1.2-0.1-1.8c0.3-3.7,5.1-6.8,12.6-6.5S713,275.3,712.4,279.1z"></path>
		<path fill="#02A4C9" stroke="#000000" stroke-width="2.0736" stroke-miterlimit="10" d="M712.4,279.1c-0.1,0.6-0.3,1.2-0.5,1.7    c-1.8,3.5-10.3,4.9-15.4,4.3s-4.8-3.4-6-7.5c-0.2-0.6-0.2-1.2-0.1-1.8c1.8-0.4,3.6,0.6,4.1,2.3c0.7,2.5,2.2-1.7,2.9,0.2    c0.7,1.9,5.5,3.3,5.5,3.3s1.5-4.1,4.6-2.7C709.1,279.6,710.8,279.6,712.4,279.1z"></path>
		<path fill="#02A4C9" stroke="#000000" stroke-width="2.0736" stroke-miterlimit="10" d="M695.1,319.2c0,1.7-0.2,3.3-1.2,4.2    c0,0,0.1,1.1-3.3,1.7c-2.1,0.3-4.3,0.4-6.4,0.4c5-5.5-0.5-13.8-0.5-13.8c7.2-2.7-0.5-12.4-0.5-12.4c7.5-2.1,9.4-12.8,9.4-12.8    c-4.6-2.4-5-8-4.7-11.5c1.6,0.5,2.5,1.2,2.8,2.1c0,0,1.1,9,8,8.3c0,0,0.2,10.7-6.5,14.9c0,0,0.2,0.6,0.6,1.6    c1,2.8,2.6,8.3,1.2,10.4c0,0.1-0.1,0.1-0.1,0.2C694.5,314.7,694.9,316.9,695.1,319.2z"></path>
		<path stroke="#000000" stroke-width="2.0736" stroke-miterlimit="10" d="M679.4,344.6c-2,1.4-4.3,2.2-6.6,2.4    c-2.4,0.2-4.8-0.4-6.9-1.5c-1.7-0.9-3.1-2.2-4.2-3.8c-1-1.6-1.7-3.2-2.3-4.9c-0.5-1.4-0.9-2.8-1.2-4.2c-0.1-0.3-0.1-0.5-0.2-0.8    c0-0.1,0-0.2-0.1-0.3c-0.2-0.8-0.3-1.6-0.4-2.4c-0.3-1.9-0.4-3.9-0.3-5.8c0-0.5,0-0.9,0.1-1.4h-0.1v0c4.5,1.2,9.2,2.1,13.8,2.7    c4.7,0.6,8.5,0.9,11.5,1c2.8,0.2,5.5,0.1,8.3-0.3C691.2,331.7,686,340,679.4,344.6z"></path>
		<path fill="#02A4C9" d="M679.4,344.6c-2,1.4-4.3,2.2-6.6,2.4c6.7-5.8,8-19.1,8-19.1c-7.6,0.7-16.8-2.3-23.7-4.7    c0-0.5,0-0.9,0.1-1.4h-0.1v0c4.5,1.2,9.2,2.1,13.8,2.7c4.7,0.6,8.5,0.9,11.5,1c2.8,0.2,5.5,0.1,8.3-0.3    C691.2,331.7,686,340,679.4,344.6z"></path>
		<path fill="#545656" stroke="#000000" stroke-width="2.0736" stroke-miterlimit="10" d="M704,380.1c0,0-0.9,5.7-4.7,9.7    c-1.6,1.7-4.6,3.3-7.6,4.6c-2.7,1.1-5.5,2.1-8.3,3c-2.7-2.3-5.6-10-5.4-10.9c2.1-0.5,4.2-1.4,6.1-2.5c0.8-0.5,1.7-1,2.4-1.6    c2.4-1.9,4.2-4.5,5.2-7.4L704,380.1z"></path>
		<g opacity="0.4">
			<path fill="#FFFFFF" stroke="#000000" stroke-width="2.0736" stroke-miterlimit="10" d="M731.5,396.8c-1.5-4.1-4.6-7.5-8.5-9.4     c-5.1-2.7-13.5-5.5-17.1-6.7c0.4-8.1,9.9-19,11.4-20.5c-3.8,2.1-6.9,5.1-9,8.8c-3.8,6.4-4.1,11.1-4.1,11.1l-0.4,2.2     c3.6,1.3,11.1,1.7,18.7,7.1S731.5,396.8,731.5,396.8z"></path>
		</g>
		<path fill="#545656" stroke="#000000" stroke-width="2.0736" stroke-miterlimit="10" d="M654.4,430.7c0,0-3.3,0.7-6.8,1.8    c-2.8,0.9-5.6,2.1-7.1,3.4c0,0-8.8-3.6-10.1-5.2c-0.3-0.4,1.1-5.7,8.9-8.8c1.5-0.6,3-1.1,4.5-1.5c4.8-1.2,7.3-0.4,7.3-0.4    L654.4,430.7z"></path>
		<path fill="#545656" stroke="#000000" stroke-width="2.0736" stroke-miterlimit="10" d="M654.4,430.7c0,0-3.3,0.7-6.8,1.8    c-0.9-3-2.4-8.3-3.9-12.2c4.8-1.2,7.3-0.4,7.3-0.4L654.4,430.7z"></path>
		<path fill="#545656" stroke="#000000" stroke-width="2.0736" stroke-miterlimit="10" d="M691.7,394.4c-2.7,1.1-5.5,2.1-8.3,3    c-2.7-2.3-5.6-10-5.4-10.9c2.1-0.5,4.2-1.4,6.1-2.5C685.9,388,688.5,391.5,691.7,394.4z"></path>
		<path fill="#545656" stroke="#000000" stroke-width="2.0736" stroke-miterlimit="10" d="M672.5,445.4c-0.9,1.2-5.4-1.3-6-1.6    c-0.6-0.3,5.1,7.8,2.5,8.3c-2.5,0.5-7.8-5.2-7.8-5.2s-0.3,0.5,1.8,3.4c1.2,1.7,1.9,3,0.7,3.8c-0.1,0.1-0.2,0.1-0.4,0.2    c-1.7,0.7-6-4-6-4s2.9,4.6,1.1,5.3c-2.1,0.8-2.6-1.6-5.4-2.9c0.9,1.3,2,3.7,1.1,4.1c-1.6,0.7-7.9-4.9-11.2-11.2    c-1.4-2.8-2.3-5.9-2.6-9c-0.1-0.4-0.1-0.8,0-1.2c0.5-0.4,13.1-5.1,13.3-5.5c0.2-0.4,3.3,1.2,9.4,5.9    C669.3,440.7,673.4,444.2,672.5,445.4z"></path>
		<path fill="#545656" stroke="#000000" stroke-width="2.0736" stroke-miterlimit="10" d="M672.5,445.4c-0.9,1.2-5.4-1.3-6-1.6    c-0.6-0.3,5.1,7.8,2.5,8.3c-2.5,0.5-7.8-5.2-7.8-5.2s-0.3,0.5,1.8,3.4c1.2,1.7,1.9,3,0.7,3.8c-6.6-4-9.2-12.9-11-15    c-1.5-1.8-8-2.1-12.4-2.4c-0.1-0.4-0.1-0.8,0-1.2c0.5-0.4,13.1-5.1,13.3-5.5s3.3,1.2,9.4,5.9C669.3,440.7,673.4,444.2,672.5,445.4    z"></path>
		<path fill="#02A4C9" stroke="#000000" stroke-width="2.0736" stroke-miterlimit="10" d="M715.3,341.2c-3.7,4.9-14.9,8-22,10.3    c-8,2.5-17.5,6.1-26.8,9.3c-9.2,3.2-11.2,10.2-11.2,10.2c0.4-5.9,8.7-12.3,17.7-15.7c9-3.3,23.1-10.4,29.1-12.8    c5.3-2.1,8.9-10.6,8.2-15.5c2.5,2.4,4.5,5.3,4.8,7.9c0.2,1.9-0.1,3.9-0.9,5.7C714.6,340.6,714.9,340.9,715.3,341.2z"></path>
		<path fill="#FFFFFF" stroke="#000000" stroke-width="2.0736" stroke-miterlimit="10" d="M665.9,345.5c2,1.1,4.3,1.6,6.6,1.5    c-3.3,1.8-5.9,3.2-5.9,3.2l-10.3,12.2c0,0,0.5-4.1,1.5-9c0.7,0,1.3,0,2-0.1c1.1-0.1,2.1-0.4,3.1-0.9c1.8-1.3,3.6-6.5,3.6-6.5    C666.2,345.8,666,345.6,665.9,345.5z"></path>
		<path fill="#02A4C9" stroke="#000000" stroke-width="2.0736" stroke-miterlimit="10" d="M701.5,331.2c-3.6,5.5-10.3,7-16.1,9.3    c-0.7,0.3-1.5,0.6-2.3,1c4.7-4.7,8-11.1,7.5-16.4c3.4-0.6,3.3-1.7,3.3-1.7c0.9-0.9,1.2-2.5,1.2-4.2l0.3-0.1c0.7,0.1,1.3,0.3,2,0.5    C701.1,323.2,704.5,326.7,701.5,331.2z"></path>
		<path fill="#FFFFFF" d="M676.7,388.8c-2.3,2-5.2,3.1-8.2,3.2c-1.7,0-3.4-0.3-5.1-0.9c-6.3-2.3-5.6-7-4.4-10.5    c0.3-0.9,0.7-1.7,1-2.5c0,0,8.4-1,14.2,3.5C680.1,386,676.7,388.8,676.7,388.8z"></path>
		<path fill="#BFBFBF" d="M676.7,388.8c-2.3,2-5.2,3.1-8.2,3.2c3.9-2.9,1.1-8.5,0.4-9c-0.8-0.5-6.6-0.5-9.8-2.4    c0.3-0.9,0.7-1.7,1-2.5c0,0,8.4-1,14.2,3.5C680.1,386,676.7,388.8,676.7,388.8z"></path>
		<path fill="#545656" stroke="#000000" stroke-width="2.0736" stroke-miterlimit="10" d="M691.5,376.8c-2.9,5.3-8.2,9-14.3,9.9    c0,0-3.1-4.2-6.3-5.1c-3.3-0.9-11-1.7-11.9-3.3c-0.3-0.4-0.4-0.9-0.4-1.4c0.1-1.2,1.5-2.3,5.6-2.1c0,0-0.5-0.1-1.3-0.2    c-2.6-0.4-8.2-1.5-7.5-3.7c0.1-0.2,0.2-0.4,0.3-0.5l0,0c0.8-0.9,2.8-1.2,4.8-1.2l0,0c0.8,0,1.7,0,2.5,0.1h0.1    c0.9,0.1,1.6,0.2,2.1,0.2l-1.3-0.2c-2.6-0.5-7-1.6-6.6-3.5c0.1-0.3,0.3-0.6,0.6-0.8c2.1-1.7,8.9-1.5,8.9-1.5l-0.4-0.1l-3.7-1    c-0.8-0.4-1.1-0.8-1-1.3c0.1-1.3,3.2-2.8,8.5-3.3c7-0.7,14.5,1.2,16.4,4.8C688.4,365.9,691.5,376.8,691.5,376.8z"></path>
		<path fill="#545656" stroke="#000000" stroke-width="2.0736" stroke-miterlimit="10" d="M681,385.7c-1.2,0.4-2.5,0.7-3.7,0.9    c0,0-3.1-4.2-6.3-5.1c-3.3-0.9-11-1.7-11.9-3.3c-0.3-0.4-0.4-0.9-0.4-1.4c4.7,1,11.5,1.5,13.2,0.7    C673.8,376.7,677.9,383.1,681,385.7z"></path>
		<path fill="#545656" stroke="#000000" stroke-width="2.0736" stroke-miterlimit="10" d="M670.5,373.6c0,0-3.6,0.5-7.6,1    c-2.6-0.4-8.2-1.5-7.5-3.7c0.1-0.2,0.2-0.4,0.3-0.5C659.3,371.6,666.1,373.4,670.5,373.6z"></path>
		<path fill="#545656" stroke="#000000" stroke-width="2.0736" stroke-miterlimit="10" d="M660.5,369c0.8,0,1.7,0,2.5,0.1    C662.2,369.1,661.3,369.1,660.5,369z"></path>
		<path fill="#545656" stroke="#000000" stroke-width="2.0736" stroke-miterlimit="10" d="M671.5,368.7c0,0-3.5,0.4-7.5,0.4    c-2.6-0.5-7-1.6-6.6-3.5c0.1-0.3,0.3-0.6,0.6-0.8C662.3,366.5,666.8,367.8,671.5,368.7z"></path>
		<path fill="#545656" stroke="#000000" stroke-width="2.0736" stroke-miterlimit="10" d="M676,362.6c0,0-4.8,0.6-9.7,0.6l-3.7-1    c-0.8-0.4-1.1-0.8-1-1.3C665.5,362,673.5,362.5,676,362.6z"></path>
		<path stroke="#000000" stroke-width="2.0736" stroke-miterlimit="10" d="M627.5,610.5c1.3,4.2,1.7,8.7,1.1,13.1    c-0.2,1.6-0.5,3.1-0.9,4.6c0,0-4.1,0.8-10.4,1.4l-1.3,0.1l-1.7,0.1c-1.5,0.1-3.2,0.2-4.9,0.2c-1.1,0-2.3,0-3.5,0    c-1.2,0-2.5,0-3.9-0.1h-0.2c-1.3,0-2.7-0.1-4.1-0.2c-16.1-1.2-27.1-3.3-28.2-5.2c-0.6-0.9-0.7-2.1-0.5-3.1c0.3-1.3,1.2-2.7,3.2-4    c3.8-2.3,11-1.3,11-1.3c2.5-0.6,4.9-1.5,7.2-2.5c0.7-0.3,1.4-0.6,2.1-1l0.4-0.2l2.4-1.2c0.8-0.4,1.6-0.8,2.4-1.2    c1.2-0.6,2.3-1.2,3.2-1.7l1.7-1c0.8-0.4,1.4-0.8,2-1.4c0.2-0.6-1.8-14.6-1.8-15.4c0,0,1.4,0.7,3.7,1.8c2.9,1.4,7,3.3,11.4,5    l0.5,0.2c2.8,1.1,5.7,1.8,8.6,2.3c1.7,0.3,3.4,0.4,5.1,0.3C631.3,603.5,627.5,610.5,627.5,610.5z"></path>
		<path stroke="#000000" stroke-width="2.0736" stroke-miterlimit="10" d="M628.6,623.6c-0.2,1.6-0.5,3.1-0.9,4.6    c-9.8,1.7-19.9,2.3-29.8,1.6c-16.1-1.2-27.1-3.3-28.2-5.2c-0.6-0.9-0.7-2.1-0.5-3.1c6.7,1.8,20.6,4.1,32.9,4.1    C610.9,625.4,619.8,624.8,628.6,623.6z"></path>
		<path stroke="#000000" stroke-width="2.0736" stroke-miterlimit="10" d="M627.5,610.5c1.3,4.2,1.7,8.7,1.1,13.1    c-0.2,1.6-0.5,3.1-0.9,4.6c-3.9,0.7-7.8,1.2-11.7,1.5c2.8-6.8,2.5-21.2,2.5-21.2s0.3-6.9-0.3-11.1l0.5,0.2    c2.8,1.1,5.7,1.8,8.6,2.3c1.7,0.3,3.4,0.4,5.1,0.3C631.3,603.5,627.5,610.5,627.5,610.5z"></path>
		<path stroke="#000000" stroke-width="2.0736" stroke-miterlimit="10" d="M770.9,603.8c-2.5,1.2-5,2.3-7.6,3.2    c-7.3,2.8-18.1,6.4-24.9,7.1c-10.3,1-13.2-1.4-13.6-3.3c0,0,0,0,0-0.1c-0.3-1.9-0.2-5.2,4.7-7.9c2.4-1.4,4.9-2.6,6.9-3.6l2.3-1.1    l0,0c0.6-0.3,1.1-0.6,1.5-0.7c0.6-0.3,0.9-0.4,0.9-0.4c0-0.4,0-0.8,0-1.1c0-0.4-0.1-0.8-0.1-1.3c-0.1-0.5-0.1-1.1-0.2-1.6    c-0.1-0.8-0.2-1.7-0.4-2.5c-0.2-1-0.4-2-0.7-2.9l6.1,2.9c1.7-1.3,3.3-2.8,4.7-4.5c2.1-2.6,4-5.4,5.6-8.3c0,0,9,7.1,12.8,14.7    c0.8,1.5,1.4,3.1,1.9,4.7C771.9,601.5,770.9,603.8,770.9,603.8z"></path>
		<path stroke="#000000" stroke-width="2.0736" stroke-miterlimit="10" d="M770.9,603.8c-2.9,1.6-22.2,9.3-32.5,10.3    c-10.3,1-13.2-1.4-13.6-3.3c0,0,0,0,0-0.1c9.5-0.2,19-1.8,28-4.7c6.4-2.2,12.4-5.2,18-8.9C771.9,601.5,770.9,603.8,770.9,603.8z"></path>
		<path stroke="#000000" stroke-width="2.0736" stroke-miterlimit="10" d="M770.9,603.8c-2.5,1.2-5,2.3-7.6,3.2    c-1.6-3.9-3.9-9-6.1-11.2c-4-3.9-11.4-4.8-11.4-4.8s-2.8-0.2-5.4-0.6c-0.2-1-0.4-2-0.7-2.9l6.1,2.9c1.7-1.3,3.3-2.8,4.7-4.5    c2.1-2.6,4-5.4,5.6-8.3c0,0,9,7.1,12.8,14.7c0.8,1.5,1.4,3.1,1.9,4.7C771.9,601.5,770.9,603.8,770.9,603.8z"></path>
		<path fill="#BFBFBF" d="M620.5,346c0.9,1.5,0.7,5.2-0.4,6.5c0,0,3.3-0.9,2.7-3.3C622.6,347.9,621.7,346.7,620.5,346z"></path>
		<path fill="#D4F5EF" d="M350.6,671c8.1,3.3,31.3,6.7,48.5,7.1c17.2,0.4,38.6-1.8,38.6-1.8s-20,0.1-34.4-5.4    c-14.4-5.6-28.8-6.8-33.5-6.4C365.2,664.9,350.6,671,350.6,671z"></path>
		<path stroke="#000000" stroke-width="2.0736" stroke-miterlimit="10" d="M345.5,530c-0.5,1.6-1.1,3.3-1.5,4.6    c-0.4,1.4-0.8,2.7-1.1,3.6c-1.4,4.5-5.1,14.5-5.6,18.6c-0.1,0.6-0.3,1.2-0.6,1.7c-1.5,2.4-5.3,2.5-7.1,0.6    c-2.1-2.3-4.2-7.3-2.1-16.8c1.9-8.6,7.2-18.3,11.6-25.1c0.6-0.8,1.1-1.6,1.6-2.4c0,0,1.7,4.4,6.4,5.1    C348.6,520.1,347.1,525.2,345.5,530z"></path>
		<path fill="#02A4C9" stroke="#000000" stroke-width="2.0736" stroke-miterlimit="10" d="M345.5,530c-1.4-1.3-2.9-2.7-4-3.6    c-1.8-1.5-2.2-5.5-2.4-9.3c0.6-0.8,1.1-1.6,1.6-2.4c0,0,1.7,4.4,6.4,5.1C348.6,520.1,347.1,525.2,345.5,530z"></path>
		<path stroke="#000000" stroke-width="2.0736" stroke-miterlimit="10" d="M430.1,556.3c0,0.2-0.1,0.5-0.2,0.7    c-0.7,1.9-3.1,3.8-6.4,4.6c-2.8,0.6-5.8,0.5-8.5-0.3c-6.5-1.9-11.7-7.8-13.4-9.9c1.3-1.4,2.3-3.1,2.9-5c1.1-4.3,0.5-12.4-0.4-18.3    c-0.5-3.2-1-5.7-1.5-6.4l0,0c0.9-0.9,1.5-2.5,1.6-5.1c0.1-0.8,0.1-1.6,0.1-2.4c0.6,0.6,1.6,1.6,2.7,2.8c4.6,4.8,9,9.9,13,15.2    C426.6,541,430.8,552.7,430.1,556.3z"></path>
		<path fill="#02A4C9" stroke="#000000" stroke-width="2.0736" stroke-miterlimit="10" d="M429.9,557c-1.3,3.4-7.5,6.4-14.9,4.2    c-6.5-1.9-11.7-7.8-13.4-9.9c1.3-1.4,2.3-3.1,2.9-5c1.1-4.3,0.5-12.4-0.4-18.3c2.4,3.8,5.2,8.6,7.9,12.9    C416.2,547.6,425,558.1,429.9,557z"></path>
		<path stroke="#000000" stroke-width="2.0736" stroke-miterlimit="10" d="M423.5,561.6c-2.8,0.6-5.8,0.5-8.5-0.3    c-6.5-1.9-11.7-7.8-13.4-9.9c1.3-1.4,2.3-3.1,2.9-5c1.1-4.3,0.5-12.4-0.4-18.3c-0.5-3.2-1-5.7-1.5-6.4l0,0    c0.9-0.9,1.5-2.5,1.6-5.1c0.1-0.8,0.1-1.6,0.1-2.4c0.6,0.6,1.6,1.6,2.7,2.8c-0.2,2.3-0.7,4.6-1.6,6.7c0,0,3.6,9,3.7,15.2    c0.2,6.2-0.6,11,1.7,14.2C412.4,555,418.9,558.9,423.5,561.6z"></path>
		<path fill="#02A4C9" stroke="#000000" stroke-width="2.0736" stroke-miterlimit="10" d="M344,534.6L344,534.6    c-0.4,1.4-0.9,2.7-1.1,3.6c-1.4,4.5-5.1,14.5-5.6,18.6c-0.1,0.6-0.3,1.2-0.6,1.8c2.8-1.7,7.6-5.7,9.3-10.4    C346,548.1,342.9,543.3,344,534.6z"></path>
		<path fill="#FFFFFF" stroke="#000000" stroke-width="2.0736" stroke-miterlimit="10" d="M404.5,546.3c-0.6,1.8-1.5,3.4-2.8,4.8    c0,0.1-0.1,0.1-0.2,0.2c-0.8,0.9-1.6,1.8-2.5,2.5c-7.1,6-16,9.3-25.3,9.3c-11.6,0-20.8-4.6-25.8-10.6c-0.8-1-1.5-2-2.1-3.1    c-0.8-1.3-1.3-2.7-1.6-4.2c-1.8-8.6,0.8-17.3,3.1-24.7c4.9-0.2,10-3.8,21.8-3.6c13.7,0.2,23.7,2.4,27.9,4.5c2,1,3.6,1.4,4.8,0.8    c0.3-0.1,0.5-0.3,0.7-0.5C403.8,523.5,406.1,539.7,404.5,546.3z"></path>
		<path fill="#FFFFFF" stroke="#000000" stroke-width="2.0736" stroke-miterlimit="10" d="M436.1,622.4c-1.9,9.2-9.5,44.6-9.5,44.6    c0,0-0.1,0.1-0.1,0.1c-1.9,1-4,1.7-6.1,2.1c-0.5,0.1-1.1,0.1-1.6,0.1c-1.7,0-3.4-0.4-5-1c-0.5-0.1-1-0.4-1.4-0.8    c-0.5-0.9-8.8-13.9-9.9-21.3c-1.1-7.5,4.1-12.6,4.1-12.6c-2.3,1.3-26.5,14.3-27,15.8c-0.4,1.5-5.3,15.5-6,16.4    c-1.9,2.3-5.5,4-9.2,4.7c-4.9,0.9-10,0.2-11.9-3.4c-2.7-6.2-4.7-12.6-6-19.2c-1.5-7.8-1.7-17.7-1.4-24.4c0.1-1.5,0.1-2.9,0.2-4    l0.2,0c0.1,0.1,0.2,0.2,0.4,0.3c0,0,9.3,4,14.8,0.5c0.2,0,0.4,0,0.6,0c4-0.1,8-0.7,12-1.6c1-0.1,17-1.3,28.5-6.7    c3.6-1.6,7-3.9,9.8-6.6c0.9-0.3,1.7-0.5,2.5-0.7c9.3-2.6,14.7-2.7,18.3-1.2C437.1,605.4,438,613.3,436.1,622.4z"></path>
		<path stroke="#000000" stroke-width="2.0736" stroke-miterlimit="10" d="M411.5,605.4c-2.9,2.7-6.2,5-9.8,6.6    c-7.1,3.3-16,5.1-22,5.9c-0.8,0.1-1.5,0.2-2.2,0.3c-2.4,0.3-4,0.4-4.3,0.4l-2.3,0.6c1.1-1.5,3.7-4.1,3.8-6.1    c0.1-2.5-0.3-5.1-0.9-7.5c-4.9-3.6-9-2.8-12-0.8c-2.1,1.5-3.9,3.4-5.2,5.7c-0.2,3.6,4.4,9.6,4.4,9.6c-0.1,0.1-0.3,0.2-0.4,0.2    c-5.5,3.5-14.8-0.5-14.8-0.5c-0.1-0.1-0.2-0.2-0.4-0.3c-6.7-5.4-11.4-13-13.1-21.4c-1-4.8-1.4-9.7-1.1-14.6    c0.4-7.5,3.8-14.5,7.5-19.9c1.1-1.6,2.2-3.1,3.3-4.5c1.8-2.3,3.8-4.5,6-6.5c5,6,14.2,10.6,25.8,10.6c0.2,0,0.4,0,0.6,0    c0.9,0,1.8,0,2.6-0.1c10.9-0.9,20-6.4,24.6-11.7c0.1-0.1,0.1-0.1,0.2-0.2c3.4,2.6,6.4,5.7,8.9,9.1c0.1,0.2,0.3,0.4,0.5,0.6    c4.1,5.5,6.9,11.8,8.2,18.5c0.2,1.2,0.4,2.4,0.5,3.6C420.7,591.4,417.7,599.7,411.5,605.4z"></path>
		<path stroke="#000000" stroke-width="2.0736" stroke-miterlimit="10" d="M404.5,546.3c-0.6,1.8-1.5,3.4-2.8,4.8    c0,0.1-0.1,0.1-0.2,0.2c-0.8,0.9-1.6,1.8-2.5,2.5c1.3-3.2,2.1-7.2,3-12.2c1-5.5-0.1-11.1-2.9-15.9c-1.9,0.4-7.1-4.1-7.1-4.1    s-10.1,3.4-15.5,3.7c-5.1,0.3-7.8-3.8-8-4.2c0.1,0.3,0.5,1.9-2,2.8c-2.8,1-7.1-2.4-7.1-2.4s0.5,2.8-3.1,4.1    c-3.6,1.3-6.2-1.6-6.2-1.6s0.3,2.4-1.4,6.1c-1.5,3.4-3.4,13.1-2.7,19.4c-0.8-1.3-1.3-2.7-1.6-4.2c-1.8-8.6,0.8-17.3,3.1-24.7    c4.9-0.2,10-3.8,21.8-3.6c13.7,0.2,23.7,2.4,27.9,4.5c2,1,3.6,1.4,4.8,0.8c0.3-0.1,0.5-0.3,0.7-0.5    C403.8,523.5,406.1,539.7,404.5,546.3z"></path>
		<path stroke="#000000" stroke-width="2.0736" stroke-miterlimit="10" d="M347.4,520.5c3.4,1.5,5.4,4.1,8.8,1.8s2.8-3.6,2.8-3.6    s4.7,4.1,7.6,3.3c2.9-0.9-2.5-4.4-0.6-3.4c1.9,1,7,5.4,12.2,5.1c5.3-0.3,14.6-4.6,14.6-4.6s-5.6-5.5-16.9-4.3s-20.3,2.8-22.2,3.1    C351.8,518.3,347.4,520.5,347.4,520.5z"></path>
		<path stroke="#000000" stroke-width="2.0736" stroke-miterlimit="10" d="M401.9,505.2c-1.2-1.9-2.7-3.5-4.4-4.9    c-6.5-5.3-27.2-12.1-51.1,0.6c-0.5,0.3-1.1,0.6-1.5,1c0.2-1.3,0.5-2.5,1-3.7c2.1-5,8.2-11.7,25.4-12.6c5.6-0.4,11.1,0.4,16.4,2.2    c7.5,2.7,11.8,7,12.9,8.9C401.7,498.6,402.2,499.5,401.9,505.2z"></path>
		<path fill="#02A4C9" stroke="#000000" stroke-width="2.0736" stroke-miterlimit="10" d="M404.4,514c0,0.8,0,1.6-0.1,2.4    c-0.2,2.6-0.7,4.2-1.6,5.1c-0.2,0.2-0.5,0.4-0.7,0.6c-1.2,0.6-2.8,0.3-4.7-0.8c-4.1-2.1-13.9-4.3-27.3-4.5    c-11.5-0.2-16.5,3.4-21.3,3.6c-0.8,0-1.6,0-2.4-0.2c-3.6-0.8-5-2.8-5.6-5c-0.3-1.4-0.5-2.7-0.5-4.1c-0.2-3.2,2.7-7.7,6-10.3    c0.5-0.4,1-0.7,1.5-1c18.8-10.3,35.6-7.9,44.7-3.8c1.9,0.8,3.7,1.9,5.3,3.2c1.7,1.4,3.1,3,4.3,4.9    C403.9,507.2,404.4,510.6,404.4,514z"></path>
		<path fill="#02A4C9" d="M347.4,583.1c-0.6,2.3,1.1,14.5,8.4,21.8l1.7-1.4c0,0-2-0.6-5.4-7.7C350,591.7,348.5,587.5,347.4,583.1z"></path>
		<path fill="#FFFFFF" stroke="#000000" stroke-width="2.0736" stroke-miterlimit="10" d="M377.1,602.6c0,5.3-0.8-25.7-1.7-32.3    c0,0-0.6-4.1-1-7.2c0.9,0,1.8,0,2.6-0.1l0.1,6.3c0,0,2.5,19,2.5,31.7C379.6,601.5,377.1,602.3,377.1,602.6z"></path>
		<path fill="#02A4C9" d="M374,607.1c6.4-2.2,12.2-6,16.7-11.1c6.4-7,8.7-14.1,7.3-19.9c0,0-0.5,9.5-6.4,15.2s-19.9,14.9-19.9,14.9    L374,607.1z"></path>
		<path fill="#02A4C9" stroke="#000000" stroke-width="2.0736" stroke-miterlimit="10" d="M410.7,560.3c-16,4.9-34.5,18.5-34.5,18.5    c-3.5-5.7-28-12.9-37.5-15.2c2.7-4,5.8-7.7,9.3-11c5,6,14.2,10.6,25.8,10.6c0.2,0,0.4,0,0.6,0c0.9,0,1.8,0,2.6-0.1    c10.9-0.9,20-6.4,24.6-11.7c0.1-0.1,0.1-0.1,0.2-0.2C405.1,553.8,408.1,556.8,410.7,560.3z"></path>
		<path fill="#02A4C9" d="M356.6,610.5c-0.2,3.6,4.4,9.6,4.4,9.6c-0.1,0.1-0.3,0.2-0.4,0.2c-5.5,3.5-14.8-0.5-14.8-0.5    c-0.1-0.1-0.2-0.2-0.4-0.3c-6.7-5.4-11.4-13-13.1-21.4c6.6,11.5,14.7,17.3,22.9,18.2c0,0-3.6-11.9,2.3-12.8    c1.6-0.2,3.2,0.3,4.4,1.4C359.7,606.3,357.9,608.3,356.6,610.5z"></path>
		<path fill="#02A4C9" d="M411.5,605.4c-2.9,2.7-6.2,5-9.8,6.6c-7.1,3.3-16,5.1-22,5.9c-0.8,0.1-1.5,0.2-2.2,0.3    c-2.4,0.3-4,0.4-4.3,0.4h-0.1c1.1-1.6,1.6-3.6,1.6-5.5c9,0.3,17.5-0.4,27.4-7.3c8.3-5.8,15.5-15.3,17.2-26.4    c0.2,1.2,0.4,2.4,0.5,3.6C420.8,591.4,417.7,599.6,411.5,605.4z"></path>
		<path stroke="#000000" stroke-width="2.0736" stroke-miterlimit="10" d="M414.1,604.6l-8.4,8.4c0,0-14,6.4-25.6,9.4    c-11.6,3-19.1,0.2-19.1,0.2s0.2,2.1-3,4.1c-2.6,1.5-9-0.7-13-3.3c0.1-1.5,0.1-2.9,0.2-4l0.2,0c0.1,0.1,0.2,0.2,0.4,0.3    c0,0,9.3,4,14.8,0.5c0.2,0,0.4,0,0.6,0c4-0.1,8-0.7,12-1.6c1-0.1,17-1.3,28.5-6.7c3.6-1.6,6.9-3.9,9.8-6.6    C412.4,605.1,413.3,604.8,414.1,604.6z"></path>
		<path fill="#02A4C9" d="M417.1,666.4c0.2,0.2,0.9,1.4,1.7,2.9c-1.7,0-3.4-0.4-5-1c-0.5-0.1-1-0.4-1.4-0.8    c-0.5-0.9-8.8-13.9-9.9-21.3c-1.1-7.5,4.1-12.6,4.1-12.6c-2.3,1.3-26.5,14.3-27,15.8c-0.4,1.5-5.3,15.5-6,16.4    c-1.9,2.3-5.5,4-9.2,4.7c2.6-3.3,5.7-9.6,6.2-15.3c0.3-3.7,0.9-7.5,1.9-11.1c0,0,13.5-6.6,23-10.4c9.6-3.8,14.2-4.5,14.6-5.1    c0.4-0.6,8.6-6.2,9.5-6.8s-8.6,16.9-8.8,24.1C410.5,652.9,416.6,665.7,417.1,666.4z"></path>
		<path stroke="#000000" stroke-width="2.0736" stroke-miterlimit="10" d="M437.8,676.2c0,0-3.9,2.3-12.1,2.7    c-2.8,0.1-5.6,0.1-8.3-0.2c-2.3-0.2-4.5-0.6-6.7-1.1c-0.3-1.1-0.3-2.3-0.2-3.4c0.3-2.2,1-4.3,2.2-6.2c0,0,0.4,0.1,1,0.2    c1.4,0.5,2.9,0.8,4.3,0.9c0.8,0.1,1.5,0,2.3,0c2.1-0.4,4.2-1.1,6.1-2.1c2.1,1.2,6.6,5,9.2,7.3    C436.9,675.5,437.8,676.2,437.8,676.2z"></path>
		<path stroke="#000000" stroke-width="2.0736" stroke-miterlimit="10" d="M437.8,676.2c0,0-3.9,2.3-12.1,2.7    c-2.8,0.1-5.6,0.1-8.3-0.2c-2.3-0.2-4.5-0.6-6.7-1.1c-0.3-1.1-0.3-2.3-0.2-3.4c3.9,1.8,11,2.7,17.8,1.8c2.5-0.3,5-0.8,7.3-1.7    C436.9,675.5,437.8,676.2,437.8,676.2z"></path>
		<path stroke="#000000" stroke-width="2.0736" stroke-miterlimit="10" d="M418,669.2c-0.3,2.8-0.5,6.6-0.7,9.6    c-2.3-0.2-4.5-0.6-6.7-1.1c-0.8-2.7,0.4-7,2-9.6c0,0,0.4,0.1,1,0.2C415.1,668.8,416.5,669.1,418,669.2z"></path>
		<path fill="#FFFFFF" stroke="#000000" stroke-width="2.0736" stroke-miterlimit="10" d="M364.8,616.8c-2.4,0-5.8,1.9-7.5,0.7    c-2.4-1.6-3.6-7-3.6-9.9c0-0.6,0.2-1.2,0.4-1.7c0.6-1.1,1.4-2.2,2.2-3.1c2-2.5,5.1-4,8.4-4c4.7,0,7.8,1.9,10.5,6.3    c0.6,1,1.1,2,1.6,3.1C378.9,612.8,370.4,616.8,364.8,616.8z"></path>
		<path fill="#FFFFFF" stroke="#000000" stroke-width="2.0736" stroke-miterlimit="10" d="M375.3,605.1l-5.4-1.6c0,0-7,3.8-9.5,4.7    c-1.5,0.5-4.3-1-6.2-2.3c0.6-1.1,1.4-2.2,2.2-3.1c2-2.5,5.1-4,8.4-4C369.5,598.8,372.7,600.6,375.3,605.1z"></path>
		<path fill="#FFFFFF" stroke="#000000" stroke-width="2.0736" stroke-miterlimit="10" d="M374.6,617.2c-1.3,1.4-3.6,2.6-7,3.2    c-6,1.1-8.4-1-8.4-1c-1.3-1.2-2.8-4.5-3.1-7.3c1.4-0.6,2.7-1.3,4-2.1c0.8-0.5,1.7-1.1,2.6-1.7l0.3-0.2c1.8-0.9,3.4-2.1,4.8-3.5    l5.4,2.1c1.7,2,2.8,4.6,3,7.3C376.1,615.2,375.5,616.4,374.6,617.2z"></path>
		<path fill="#FFFFFF" stroke="#000000" stroke-width="2.0736" stroke-miterlimit="10" d="M374.6,617.2c-1.3,1.4-3.6,2.6-7,3.2    c-6,1.1-8.4-1-8.4-1c-1.3-1.2-2.8-4.5-3.1-7.3c1.4-0.6,2.7-1.3,4-2.1c0.5,0.6,1,1.3,1.5,2.2C363.1,614.5,370.7,616.5,374.6,617.2z    "></path>
		<path fill="#FFFFFF" stroke="#000000" stroke-width="2.0736" stroke-miterlimit="10" d="M374,603.5L374,603.5l-5.2-1.9    c0,0-0.1,0.1-0.1,0.1c-1.3,1.3-2.8,2.4-4.4,3.3c-2.6,1.5-5.4,2.5-6.6,2.4c-2.1-0.2-3.6-6.6,0.5-10.1c0.9-0.7,1.8-1.4,2.8-1.9    c3.9-2.1,8.6-2.9,11.4-0.2C375.8,598.5,374,603.5,374,603.5z"></path>
		<path fill="#BFBFBF" d="M374,603.5L374,603.5l-5.2-1.9c0,0-0.1,0.1-0.1,0.1c-0.5-1.6-0.9-3.2-1.2-4c-0.6-1.4-3.6-2.2-6.5-2.2    c3.9-2.1,8.6-2.9,11.4-0.2C375.8,598.5,374,603.5,374,603.5z"></path>
		<path stroke="#000000" stroke-width="2.0736" stroke-miterlimit="10" d="M352.4,669.8c0,0-2.4-2.2,5-5.6s16.1,1.6,16.1,1.6    s6.2-4.4,9.3-2.1c3.1,2.3,1.2,5.1,1.2,5.1s-14.3,5.1-22.3,4S352.4,669.8,352.4,669.8z"></path>
		<path fill="#C8EBEB" d="M190.5,597.8c0.5-1.2,3.3-5.6-2.7-9.7s-16.8-0.2-16.8-0.2s-3-6.8-13.6-6.9c-10.6-0.1-17.5,2.5-17.1,7.8    c0.4,5.3,0.8,8.1,0.8,8.1s10.2,5.7,16.4,4.7c0,0,3.9,4.1,7.5,4.4c2.1,0.2,4.1-1,5-3c1.1,2,3.2,3.4,5.5,3.6    C179.2,606.9,188.2,603.8,190.5,597.8z"></path>
		<path fill="#C8EBEB" d="M556.5,600.2c0.1-1.3,1.5-6.4-5.4-8.4s-16.1,4.7-16.1,4.7s-4.9-5.6-15.1-2.6c-10.2,3-16,7.5-14.1,12.4    s3.1,7.6,3.1,7.6s11.5,2.4,17.1-0.4c0,0,4.9,2.8,8.4,2c2.1-0.4,3.6-2.2,3.9-4.3c1.7,1.6,4.1,2.3,6.4,1.8    C548.4,612.2,556.1,606.6,556.5,600.2z"></path>
		<path fill="#C8EBEB" d="M589.4,632.2c1-0.9,5.6-3.3,2.2-9.8c-3.4-6.4-14.7-8.2-14.7-8.2s0.6-7.4-8.6-12.6    c-9.2-5.2-16.5-6.2-18.7-1.4s-3.3,7.5-3.3,7.5s6.2,9.9,12.2,12c0,0,1.4,5.4,4.5,7.4c1.8,1.2,4.1,1.1,5.8-0.2    c0,2.3,1.2,4.5,3.1,5.8C575.1,634.8,584.5,636.4,589.4,632.2z"></path>
	</g>
</g>
</svg>